# 3ds Max Wavefront OBJ Exporter v0.97b - (c)2007 guruware
# File Created: 11.05.2017 11:34:50

mtllib bowl.mtl

#
# object Cylinder001
#

v  0.0529 0.0000 -0.0000
v  0.0428 0.0000 -0.0311
v  0.0394 0.0044 -0.0286
v  0.0487 0.0044 -0.0000
v  0.0164 0.0000 -0.0503
v  0.0151 0.0044 -0.0463
v  -0.0164 0.0000 -0.0503
v  -0.0151 0.0044 -0.0463
v  -0.0428 0.0000 -0.0311
v  -0.0394 0.0044 -0.0286
v  -0.0529 0.0000 0.0000
v  -0.0487 0.0044 0.0000
v  -0.0428 0.0000 0.0311
v  -0.0394 0.0044 0.0286
v  -0.0164 0.0000 0.0503
v  -0.0151 0.0044 0.0463
v  0.0164 0.0000 0.0503
v  0.0151 0.0044 0.0463
v  0.0428 0.0000 0.0311
v  0.0394 0.0044 0.0286
v  0.0478 0.0179 -0.0347
v  0.0591 0.0179 -0.0000
v  0.0182 0.0179 -0.0562
v  -0.0182 0.0179 -0.0562
v  -0.0478 0.0179 -0.0347
v  -0.0591 0.0179 0.0000
v  -0.0478 0.0179 0.0347
v  -0.0182 0.0179 0.0562
v  0.0182 0.0179 0.0562
v  0.0478 0.0179 0.0347
v  0.0490 0.0242 -0.0356
v  0.0502 0.0305 -0.0365
v  0.0621 0.0305 0.0000
v  0.0606 0.0242 0.0000
v  0.0187 0.0242 -0.0576
v  0.0192 0.0305 -0.0591
v  -0.0187 0.0242 -0.0576
v  -0.0192 0.0305 -0.0591
v  -0.0490 0.0242 -0.0356
v  -0.0502 0.0305 -0.0365
v  -0.0606 0.0242 0.0000
v  -0.0621 0.0305 0.0000
v  -0.0490 0.0242 0.0356
v  -0.0502 0.0305 0.0365
v  -0.0187 0.0242 0.0576
v  -0.0192 0.0305 0.0591
v  0.0187 0.0242 0.0576
v  0.0192 0.0305 0.0591
v  0.0490 0.0242 0.0356
v  0.0502 0.0305 0.0365
v  0.0636 0.0368 0.0000
v  0.0515 0.0368 -0.0374
v  0.0505 0.0453 -0.0367
v  0.0624 0.0453 0.0000
v  0.0197 0.0368 -0.0605
v  0.0193 0.0453 -0.0594
v  -0.0197 0.0368 -0.0605
v  -0.0193 0.0453 -0.0594
v  -0.0515 0.0368 -0.0374
v  -0.0505 0.0453 -0.0367
v  -0.0636 0.0368 0.0000
v  -0.0624 0.0453 0.0000
v  -0.0515 0.0368 0.0374
v  -0.0505 0.0453 0.0367
v  -0.0197 0.0368 0.0605
v  -0.0193 0.0453 0.0594
v  0.0197 0.0368 0.0605
v  0.0193 0.0453 0.0594
v  0.0515 0.0368 0.0374
v  0.0505 0.0453 0.0367
v  0.0531 0.0502 -0.0386
v  0.0656 0.0502 0.0000
v  0.0203 0.0502 -0.0624
v  -0.0203 0.0502 -0.0624
v  -0.0531 0.0502 -0.0386
v  -0.0656 0.0502 0.0000
v  -0.0531 0.0502 0.0386
v  -0.0203 0.0502 0.0624
v  0.0203 0.0502 0.0624
v  0.0531 0.0502 0.0386
v  0.0452 0.0229 -0.0328
v  0.0280 0.0028 -0.0203
v  0.0336 0.0028 0.0019
v  0.0558 0.0229 0.0000
v  0.0172 0.0229 -0.0531
v  0.0107 0.0028 -0.0329
v  -0.0172 0.0229 -0.0531
v  -0.0107 0.0028 -0.0329
v  -0.0452 0.0229 -0.0328
v  -0.0280 0.0028 -0.0203
v  -0.0558 0.0229 0.0000
v  -0.0346 0.0028 0.0000
v  -0.0452 0.0229 0.0328
v  -0.0280 0.0028 0.0203
v  -0.0172 0.0229 0.0531
v  -0.0107 0.0028 0.0329
v  0.0172 0.0229 0.0531
v  0.0122 0.0028 0.0314
v  0.0452 0.0229 0.0328
v  0.0277 0.0028 0.0201
v  0.0506 0.0534 -0.0368
v  0.0475 0.0469 -0.0345
v  0.0587 0.0469 0.0000
v  0.0626 0.0534 0.0000
v  0.0193 0.0534 -0.0595
v  0.0181 0.0469 -0.0558
v  -0.0193 0.0534 -0.0595
v  -0.0181 0.0469 -0.0558
v  -0.0506 0.0534 -0.0368
v  -0.0475 0.0469 -0.0345
v  -0.0626 0.0534 0.0000
v  -0.0587 0.0469 0.0000
v  -0.0506 0.0534 0.0368
v  -0.0475 0.0469 0.0345
v  -0.0193 0.0534 0.0595
v  -0.0181 0.0469 0.0558
v  0.0193 0.0534 0.0595
v  0.0181 0.0469 0.0558
v  0.0506 0.0534 0.0368
v  0.0475 0.0469 0.0345
# 120 vertices

vn 0.6385 0.7696 -0.0000
vn 0.5166 0.7696 -0.3753
vn 0.6385 0.7696 0.0000
vn 0.1973 0.7696 -0.6073
vn -0.1973 0.7696 -0.6073
vn -0.5166 0.7696 -0.3753
vn -0.6385 0.7696 -0.0000
vn -0.5166 0.7696 0.3753
vn -0.1973 0.7696 0.6073
vn 0.1973 0.7696 0.6073
vn 0.5166 0.7696 0.3753
vn 0.7143 -0.6999 -0.0000
vn 0.5779 -0.6999 -0.4198
vn 0.7041 -0.4925 -0.5115
vn 0.8703 -0.4925 -0.0000
vn 0.2207 -0.6999 -0.6793
vn 0.2689 -0.4925 -0.8277
vn -0.2207 -0.6999 -0.6793
vn -0.2689 -0.4925 -0.8277
vn -0.5779 -0.6999 -0.4198
vn -0.7041 -0.4925 -0.5115
vn -0.7143 -0.6999 0.0000
vn -0.8703 -0.4925 0.0000
vn -0.5779 -0.6999 0.4198
vn -0.7041 -0.4925 0.5115
vn -0.2207 -0.6999 0.6793
vn -0.2689 -0.4925 0.8277
vn 0.2207 -0.6999 0.6793
vn 0.2689 -0.4925 0.8277
vn 0.5779 -0.6999 0.4198
vn 0.7041 -0.4925 0.5115
vn 0.7729 -0.2953 -0.5616
vn 0.9554 -0.2953 -0.0000
vn 0.2952 -0.2953 -0.9086
vn -0.2952 -0.2953 -0.9086
vn -0.7729 -0.2953 -0.5616
vn -0.9554 -0.2953 0.0000
vn -0.7729 -0.2953 0.5616
vn -0.2952 -0.2953 0.9086
vn 0.2952 -0.2953 0.9086
vn 0.7729 -0.2953 0.5616
vn 0.9983 -0.0583 -0.0000
vn 0.8076 -0.0583 -0.5868
vn 0.7771 -0.2781 -0.5646
vn 0.9605 -0.2781 -0.0000
vn 0.3085 -0.0583 -0.9494
vn 0.2968 -0.2781 -0.9135
vn -0.3085 -0.0583 -0.9494
vn -0.2968 -0.2781 -0.9135
vn -0.8076 -0.0583 -0.5868
vn -0.7771 -0.2781 -0.5646
vn -0.9983 -0.0583 0.0000
vn -0.9605 -0.2781 0.0000
vn -0.8076 -0.0583 0.5868
vn -0.7771 -0.2781 0.5646
vn -0.3085 -0.0583 0.9494
vn -0.2968 -0.2781 0.9135
vn 0.3085 -0.0583 0.9494
vn 0.2968 -0.2781 0.9135
vn 0.8076 -0.0583 0.5868
vn 0.7771 -0.2781 0.5646
vn 0.6221 -0.6392 -0.4520
vn 0.7690 -0.6392 -0.0000
vn 0.2376 -0.6392 -0.7314
vn -0.2376 -0.6392 -0.7314
vn -0.6221 -0.6392 -0.4520
vn -0.7690 -0.6392 0.0000
vn -0.6221 -0.6392 0.4520
vn -0.2376 -0.6392 0.7314
vn 0.2376 -0.6392 0.7314
vn 0.6221 -0.6392 0.4520
vn 0.0000 -1.0000 -0.0000
vn -0.7081 0.4882 0.5102
vn -0.3114 0.9274 0.2074
vn -0.3578 0.9337 -0.0114
vn -0.8701 0.4928 0.0032
vn -0.2703 0.4847 0.8319
vn -0.1139 0.9296 0.3505
vn 0.2703 0.4847 0.8319
vn 0.1139 0.9296 0.3505
vn 0.7076 0.4847 0.5141
vn 0.2982 0.9296 0.2166
vn 0.8747 0.4847 -0.0000
vn 0.3685 0.9296 -0.0000
vn 0.7076 0.4847 -0.5141
vn 0.2982 0.9296 -0.2166
vn 0.2703 0.4847 -0.8319
vn 0.1087 0.9297 -0.3518
vn -0.2698 0.4890 -0.8295
vn -0.1274 0.9354 -0.3297
vn -0.7063 0.4876 -0.5132
vn -0.2949 0.9312 -0.2142
vn -0.6434 0.6063 0.4674
vn -0.7381 0.4094 0.5363
vn -0.9124 0.4094 0.0000
vn -0.7952 0.6063 0.0000
vn -0.2457 0.6063 0.7563
vn -0.2819 0.4094 0.8677
vn 0.2457 0.6063 0.7563
vn 0.2819 0.4094 0.8677
vn 0.6434 0.6063 0.4674
vn 0.7381 0.4094 0.5363
vn 0.7952 0.6063 -0.0000
vn 0.9124 0.4094 -0.0000
vn 0.6434 0.6063 -0.4674
vn 0.7381 0.4094 -0.5363
vn 0.2457 0.6063 -0.7563
vn 0.2819 0.4094 -0.8677
vn -0.2457 0.6063 -0.7563
vn -0.2819 0.4094 -0.8677
vn -0.6434 0.6063 -0.4674
vn -0.7381 0.4094 -0.5363
vn 0.6392 0.7690 -0.0000
vn 0.5172 0.7690 -0.3757
vn 0.1975 0.7690 -0.6079
vn -0.1975 0.7690 -0.6079
vn -0.5172 0.7690 -0.3757
vn -0.6392 0.7690 -0.0000
vn -0.5172 0.7690 0.3757
vn -0.1975 0.7690 0.6079
vn 0.1975 0.7690 0.6079
vn 0.5172 0.7690 0.3757
# 122 vertex normals

vt 0.2993 0.5913 1.0000
vt 0.3373 0.5913 1.0000
vt 0.3373 0.6673 1.0000
vt 0.2993 0.6673 1.0000
vt 0.3753 0.5913 1.0000
vt 0.3753 0.6673 1.0000
vt 0.4133 0.5913 1.0000
vt 0.4133 0.6673 1.0000
vt 0.0333 0.5913 1.0000
vt 0.0713 0.5913 1.0000
vt 0.0713 0.6673 1.0000
vt 0.0333 0.6673 1.0000
vt 0.1093 0.5913 1.0000
vt 0.1093 0.6673 1.0000
vt 0.1473 0.5913 1.0000
vt 0.1473 0.6673 1.0000
vt 0.1853 0.5913 1.0000
vt 0.1853 0.6673 1.0000
vt 0.2233 0.5913 1.0000
vt 0.2233 0.6673 1.0000
vt 0.2613 0.5913 1.0000
vt 0.2613 0.6673 1.0000
vt 0.3373 0.7433 1.0000
vt 0.2993 0.7433 1.0000
vt 0.3753 0.7433 1.0000
vt 0.4133 0.7433 1.0000
vt 0.0713 0.7433 1.0000
vt 0.0333 0.7433 1.0000
vt 0.1093 0.7433 1.0000
vt 0.1473 0.7433 1.0000
vt 0.1853 0.7433 1.0000
vt 0.2233 0.7433 1.0000
vt 0.2613 0.7433 1.0000
vt 0.3373 0.7686 1.0000
vt 0.3373 0.7940 1.0000
vt 0.2993 0.7940 1.0000
vt 0.2993 0.7686 1.0000
vt 0.3753 0.7686 1.0000
vt 0.3753 0.7940 1.0000
vt 0.4133 0.7686 1.0000
vt 0.4133 0.7940 1.0000
vt 0.0713 0.7686 1.0000
vt 0.0713 0.7940 1.0000
vt 0.0333 0.7940 1.0000
vt 0.0333 0.7686 1.0000
vt 0.1093 0.7686 1.0000
vt 0.1093 0.7940 1.0000
vt 0.1473 0.7686 1.0000
vt 0.1473 0.7940 1.0000
vt 0.1853 0.7686 1.0000
vt 0.1853 0.7940 1.0000
vt 0.2233 0.7686 1.0000
vt 0.2233 0.7940 1.0000
vt 0.2613 0.7686 1.0000
vt 0.2613 0.7940 1.0000
vt 0.2993 0.8193 1.0000
vt 0.3373 0.8193 1.0000
vt 0.3373 0.8953 1.0000
vt 0.2993 0.8953 1.0000
vt 0.3753 0.8193 1.0000
vt 0.3753 0.8953 1.0000
vt 0.4133 0.8193 1.0000
vt 0.4133 0.8953 1.0000
vt 0.0333 0.8193 1.0000
vt 0.0713 0.8193 1.0000
vt 0.0713 0.8953 1.0000
vt 0.0333 0.8953 1.0000
vt 0.1093 0.8193 1.0000
vt 0.1093 0.8953 1.0000
vt 0.1473 0.8193 1.0000
vt 0.1473 0.8953 1.0000
vt 0.1853 0.8193 1.0000
vt 0.1853 0.8953 1.0000
vt 0.2233 0.8193 1.0000
vt 0.2233 0.8953 1.0000
vt 0.2613 0.8193 1.0000
vt 0.2613 0.8953 1.0000
vt 0.3373 0.9713 1.0000
vt 0.2993 0.9713 1.0000
vt 0.3753 0.9713 1.0000
vt 0.4133 0.9713 1.0000
vt 0.0713 0.9713 1.0000
vt 0.0333 0.9713 1.0000
vt 0.1093 0.9713 1.0000
vt 0.1473 0.9713 1.0000
vt 0.1853 0.9713 1.0000
vt 0.2233 0.9713 1.0000
vt 0.2613 0.9713 1.0000
vt 0.0236 0.8400 -0.2500
vt 0.0926 0.9350 -0.2500
vt 0.2043 0.9713 -0.2500
vt 0.3160 0.9350 -0.2500
vt 0.3850 0.8400 -0.2500
vt 0.3850 0.7226 -0.2500
vt 0.3160 0.6276 -0.2500
vt 0.2043 0.5913 -0.2500
vt 0.0926 0.6276 -0.2500
vt 0.0236 0.7226 -0.2500
vt 0.8648 0.1139 1.0000
vt 0.8648 0.1392 1.0000
vt 0.8268 0.1392 1.0000
vt 0.8268 0.1139 1.0000
vt 0.8268 0.0886 1.0000
vt 0.8268 0.0632 1.0000
vt 0.8648 0.0632 1.0000
vt 0.8648 0.0886 1.0000
vt 0.9028 0.1139 1.0000
vt 0.9028 0.1392 1.0000
vt 0.9028 0.0632 1.0000
vt 0.9028 0.0886 1.0000
vt 0.9408 0.1139 1.0000
vt 0.9408 0.1392 1.0000
vt 0.9408 0.0632 1.0000
vt 0.9408 0.0886 1.0000
vt 0.5988 0.1139 1.0000
vt 0.5988 0.1392 1.0000
vt 0.5608 0.1392 1.0000
vt 0.5608 0.1139 1.0000
vt 0.5608 0.0886 1.0000
vt 0.5608 0.0632 1.0000
vt 0.5988 0.0632 1.0000
vt 0.5988 0.0886 1.0000
vt 0.6368 0.1139 1.0000
vt 0.6368 0.1392 1.0000
vt 0.6368 0.0632 1.0000
vt 0.6368 0.0886 1.0000
vt 0.6748 0.1139 1.0000
vt 0.6748 0.1392 1.0000
vt 0.6748 0.0632 1.0000
vt 0.6748 0.0886 1.0000
vt 0.7128 0.1139 1.0000
vt 0.7128 0.1392 1.0000
vt 0.7128 0.0632 1.0000
vt 0.7128 0.0886 1.0000
vt 0.7508 0.1139 1.0000
vt 0.7508 0.1392 1.0000
vt 0.7508 0.0632 1.0000
vt 0.7508 0.0886 1.0000
vt 0.7888 0.1139 1.0000
vt 0.7888 0.1392 1.0000
vt 0.7888 0.0632 1.0000
vt 0.7888 0.0886 1.0000
# 142 texture coords

g Cylinder001
usemtl wire_153228184
s 4
f 1/1/1 2/2/2 3/3/2 4/4/3 
f 2/2/2 5/5/4 6/6/4 3/3/2 
f 5/5/4 7/7/5 8/8/5 6/6/4 
f 7/9/5 9/10/6 10/11/6 8/12/5 
f 9/10/6 11/13/7 12/14/7 10/11/6 
f 11/13/7 13/15/8 14/16/8 12/14/7 
f 13/15/8 15/17/9 16/18/9 14/16/8 
f 15/17/9 17/19/10 18/20/10 16/18/9 
f 17/19/10 19/21/11 20/22/11 18/20/10 
f 19/21/11 1/1/1 4/4/3 20/22/11 
s 8
f 4/4/12 3/3/13 21/23/14 22/24/15 
f 3/3/13 6/6/16 23/25/17 21/23/14 
f 6/6/16 8/8/18 24/26/19 23/25/17 
f 8/12/18 10/11/20 25/27/21 24/28/19 
f 10/11/20 12/14/22 26/29/23 25/27/21 
f 12/14/22 14/16/24 27/30/25 26/29/23 
f 14/16/24 16/18/26 28/31/27 27/30/25 
f 16/18/26 18/20/28 29/32/29 28/31/27 
f 18/20/28 20/22/30 30/33/31 29/32/29 
f 20/22/30 4/4/12 22/24/15 30/33/31 
f 31/34/32 32/35/32 33/36/33 34/37/33 
f 35/38/34 36/39/34 32/35/32 31/34/32 
f 37/40/35 38/41/35 36/39/34 35/38/34 
f 39/42/36 40/43/36 38/44/35 37/45/35 
f 41/46/37 42/47/37 40/43/36 39/42/36 
f 43/48/38 44/49/38 42/47/37 41/46/37 
f 45/50/39 46/51/39 44/49/38 43/48/38 
f 47/52/40 48/53/40 46/51/39 45/50/39 
f 49/54/41 50/55/41 48/53/40 47/52/40 
f 34/37/33 33/36/33 50/55/41 49/54/41 
f 51/56/42 52/57/43 53/58/44 54/59/45 
f 52/57/43 55/60/46 56/61/47 53/58/44 
f 55/60/46 57/62/48 58/63/49 56/61/47 
f 57/64/48 59/65/50 60/66/51 58/67/49 
f 59/65/50 61/68/52 62/69/53 60/66/51 
f 61/68/52 63/70/54 64/71/55 62/69/53 
f 63/70/54 65/72/56 66/73/57 64/71/55 
f 65/72/56 67/74/58 68/75/59 66/73/57 
f 67/74/58 69/76/60 70/77/61 68/75/59 
f 69/76/60 51/56/42 54/59/45 70/77/61 
f 54/59/45 53/58/44 71/78/62 72/79/63 
f 53/58/44 56/61/47 73/80/64 71/78/62 
f 56/61/47 58/63/49 74/81/65 73/80/64 
f 58/67/49 60/66/51 75/82/66 74/83/65 
f 60/66/51 62/69/53 76/84/67 75/82/66 
f 62/69/53 64/71/55 77/85/68 76/84/67 
f 64/71/55 66/73/57 78/86/69 77/85/68 
f 66/73/57 68/75/59 79/87/70 78/86/69 
f 68/75/59 70/77/61 80/88/71 79/87/70 
f 70/77/61 54/59/45 72/79/63 80/88/71 
s 1
f 5/89/72 2/90/72 1/91/72 19/92/72 17/93/72 15/94/72 13/95/72 11/96/72 9/97/72 7/98/72 
s 9
f 81/23/73 82/3/74 83/4/75 84/24/76 
f 85/25/77 86/6/78 82/3/74 81/23/73 
f 87/26/79 88/8/80 86/6/78 85/25/77 
f 89/27/81 90/11/82 88/12/80 87/28/79 
f 91/29/83 92/14/84 90/11/82 89/27/81 
f 93/30/85 94/16/86 92/14/84 91/29/83 
f 95/31/87 96/18/88 94/16/86 93/30/85 
f 97/32/89 98/20/90 96/18/88 95/31/87 
f 99/33/91 100/22/92 98/20/90 97/32/89 
f 84/24/76 83/4/75 100/22/92 99/33/91 
f 101/78/93 102/58/94 103/59/95 104/79/96 
f 105/80/97 106/61/98 102/58/94 101/78/93 
f 107/81/99 108/63/100 106/61/98 105/80/97 
f 109/82/101 110/66/102 108/67/100 107/83/99 
f 111/84/103 112/69/104 110/66/102 109/82/101 
f 113/85/105 114/71/106 112/69/104 111/84/103 
f 115/86/107 116/73/108 114/71/106 113/85/105 
f 117/87/109 118/75/110 116/73/108 115/86/107 
f 119/88/111 120/77/112 118/75/110 117/87/109 
f 104/79/96 103/59/95 120/77/112 119/88/111 
s 2147483648
f 72/79/113 71/78/114 101/78/114 104/79/113 
f 71/78/114 73/80/115 105/80/115 101/78/114 
f 73/80/115 74/81/116 107/81/116 105/80/115 
f 74/83/116 75/82/117 109/82/117 107/83/116 
f 75/82/117 76/84/118 111/84/118 109/82/117 
f 76/84/118 77/85/119 113/85/119 111/84/118 
f 77/85/119 78/86/120 115/86/120 113/85/119 
f 78/86/120 79/87/121 117/87/121 115/86/120 
f 79/87/121 80/88/122 119/88/122 117/87/121 
f 80/88/122 72/79/113 104/79/113 119/88/122 
s 8
f 82/3/74 86/6/78 88/8/80 90/11/82 92/14/84 94/16/86 96/18/88 98/20/90 100/22/92 83/4/75 
s 9
f 84/24/76 99/33/91 120/77/112 103/59/95 
f 99/33/91 97/32/89 118/75/110 120/77/112 
f 97/32/89 95/31/87 116/73/108 118/75/110 
f 95/31/87 93/30/85 114/71/106 116/73/108 
f 93/30/85 91/29/83 112/69/104 114/71/106 
f 91/29/83 89/27/81 110/66/102 112/69/104 
f 89/27/81 87/28/79 108/67/100 110/66/102 
f 87/26/79 85/25/77 106/61/98 108/63/100 
f 85/25/77 81/23/73 102/58/94 106/61/98 
f 81/23/73 84/24/76 103/59/95 102/58/94 
s 8
f 32/99/32 52/100/43 51/101/42 33/102/33 
f 34/103/33 22/104/15 21/105/14 31/106/32 
f 36/107/34 55/108/46 52/100/43 32/99/32 
f 31/106/32 21/105/14 23/109/17 35/110/34 
f 38/111/35 57/112/48 55/108/46 36/107/34 
f 35/110/34 23/109/17 24/113/19 37/114/35 
f 40/115/36 59/116/50 57/117/48 38/118/35 
f 37/119/35 24/120/19 25/121/21 39/122/36 
f 42/123/37 61/124/52 59/116/50 40/115/36 
f 39/122/36 25/121/21 26/125/23 41/126/37 
f 44/127/38 63/128/54 61/124/52 42/123/37 
f 41/126/37 26/125/23 27/129/25 43/130/38 
f 46/131/39 65/132/56 63/128/54 44/127/38 
f 43/130/38 27/129/25 28/133/27 45/134/39 
f 48/135/40 67/136/58 65/132/56 46/131/39 
f 45/134/39 28/133/27 29/137/29 47/138/40 
f 50/139/41 69/140/60 67/136/58 48/135/40 
f 47/138/40 29/137/29 30/141/31 49/142/41 
f 33/102/33 51/101/42 69/140/60 50/139/41 
f 49/142/41 30/141/31 22/104/15 34/103/33 
# 112 polygons

